HIERARCHY
ROOT Hips
{
	OFFSET 0.00000 0.00000 0.00000
	CHANNELS 6 Xposition Yposition Zposition Zrotation Yrotation Xrotation 
	JOINT LHipJoint
	{
		OFFSET 0 0 0
		CHANNELS 3 Zrotation Yrotation Xrotation
		JOINT LeftUpLeg
		{
			OFFSET 1.62964 -1.40469 0.78906
			CHANNELS 3 Zrotation Yrotation Xrotation
			JOINT LeftLeg
			{
				OFFSET 2.29640 -6.30932 0.00000
				CHANNELS 3 Zrotation Yrotation Xrotation
				JOINT LeftFoot
				{
					OFFSET 2.29451 -6.30412 0.00000
					CHANNELS 3 Zrotation Yrotation Xrotation
					JOINT LeftToeBase
					{
						OFFSET 0.03611 -0.09921 1.56387
						CHANNELS 3 Zrotation Yrotation Xrotation
						End Site
						{
							OFFSET 0.00000 -0.00000 0.80291
						}
					}
				}
			}
		}
	}
	JOINT RHipJoint
	{
		OFFSET 0 0 0
		CHANNELS 3 Zrotation Yrotation Xrotation
		JOINT RightUpLeg
		{
			OFFSET -1.73712 -1.40469 0.78906
			CHANNELS 3 Zrotation Yrotation Xrotation
			JOINT RightLeg
			{
				OFFSET -2.28137 -6.26801 0.00000
				CHANNELS 3 Zrotation Yrotation Xrotation
				JOINT RightFoot
				{
					OFFSET -2.28681 -6.28298 0.00000
					CHANNELS 3 Zrotation Yrotation Xrotation
					JOINT RightToeBase
					{
						OFFSET -0.15927 -0.43759 1.61103
						CHANNELS 3 Zrotation Yrotation Xrotation
						End Site
						{
							OFFSET -0.00000 -0.00000 0.84630
						}
					}
				}
			}
		}
	}
	JOINT LowerBack
	{
		OFFSET 0 0 0
		CHANNELS 3 Zrotation Yrotation Xrotation
		JOINT Spine
		{
			OFFSET -0.04227 2.04338 -0.00225
			CHANNELS 3 Zrotation Yrotation Xrotation
			JOINT Spine1
			{
				OFFSET -0.02148 2.04482 -0.04273
				CHANNELS 3 Zrotation Yrotation Xrotation
				JOINT Neck
				{
					OFFSET 0 0 0
					CHANNELS 3 Zrotation Yrotation Xrotation
					JOINT Neck1
					{
						OFFSET 0.09180 1.44629 0.19359
						CHANNELS 3 Zrotation Yrotation Xrotation
						JOINT Head
						{
							OFFSET 0.00887 1.40645 0.14750
							CHANNELS 3 Zrotation Yrotation Xrotation
							End Site
							{
								OFFSET -0.00669 1.50671 0.03707
							}
						}
					}
				}
				JOINT LeftShoulder
				{
					OFFSET 0 0 0
					CHANNELS 3 Zrotation Yrotation Xrotation
					JOINT LeftArm
					{
						OFFSET 2.17674 1.86763 -0.06520
						CHANNELS 3 Zrotation Yrotation Xrotation
						JOINT LeftForeArm
						{
							OFFSET 4.65776 -0.00000 0.00000
							CHANNELS 3 Zrotation Yrotation Xrotation
							JOINT LeftHand
							{
								OFFSET 3.55539 -0.00000 0.00000
								CHANNELS 3 Zrotation Yrotation Xrotation
								JOINT LeftFingerBase
								{
									OFFSET 0 0 0
									CHANNELS 3 Zrotation Yrotation Xrotation
									JOINT LeftHandIndex1
									{
										OFFSET 0.70726 -0.00000 0.00000
										CHANNELS 3 Zrotation Yrotation Xrotation
										End Site
										{
											OFFSET 0.57022 -0.00000 0.00000
										}
									}
								}
								JOINT LThumb
								{
									OFFSET 0 0 0
									CHANNELS 3 Zrotation Yrotation Xrotation
									End Site
									{
										OFFSET 0.57892 -0.00000 0.57892
									}
								}
							}
						}
					}
				}
				JOINT RightShoulder
				{
					OFFSET 0 0 0
					CHANNELS 3 Zrotation Yrotation Xrotation
					JOINT RightArm
					{
						OFFSET -2.80694 1.55459 -0.32496
						CHANNELS 3 Zrotation Yrotation Xrotation
						JOINT RightForeArm
						{
							OFFSET -4.71925 -0.00000 -0.00000
							CHANNELS 3 Zrotation Yrotation Xrotation
							JOINT RightHand
							{
								OFFSET -3.56990 -0.00000 0.00000
								CHANNELS 3 Zrotation Yrotation Xrotation
								JOINT RightFingerBase
								{
									OFFSET 0 0 0
									CHANNELS 3 Zrotation Yrotation Xrotation
									JOINT RightHandIndex1
									{
										OFFSET -0.50776 -0.00000 0.00000
										CHANNELS 3 Zrotation Yrotation Xrotation
										End Site
										{
											OFFSET -0.40937 -0.00000 0.00000
										}
									}
								}
								JOINT RThumb
								{
									OFFSET 0 0 0
									CHANNELS 3 Zrotation Yrotation Xrotation
									End Site
									{
										OFFSET -0.41562 -0.00000 0.41562
									}
								}
							}
						}
					}
				}
			}
		}
	}
}
MOTION
Frames: 13
Frame Time: .0083333
9.6927 11.7154 4.3193 -0.1716 -1.3638 18.4786 0.0000 0.0000 0.0000 2.6453 -14.8785 -68.5106 0.0000 0.0000 0.0000 0.0000 0.0000 0.0000 0.0000 0.0000 0.0000 0.0000 0.0000 0.0000 1.0344 11.8335 -65.7904 0.0000 0.0000 0.0000 -0.0000 -0.0000 0.0000 -0.0000 -0.0000 0.0000 -2.5055 0.4776 -0.1414 -1.4583 0.6930 1.9176 -0.0786 0.3165 2.0343 7.8398 -0.6368 -11.5377 0.0574 -1.6027 -13.2020 -1.3318 -1.1656 -2.3702 -0.0000 0.0000 0.0000 0.0000 0.0000 -0.0000 0.0000 0.0000 -0.0000 -0.0000 -0.0000 0.0000 -0.0000 0.0000 0.0000 -0.0000 0.0000 0.0000 0.0000 0.0000 0.0000 -0.0000 0.0000 0.0000 -25.0086 73.0236 -55.0123 -9.9820 16.7113 -1.4698 0.0000 0.0000 29.2655 -11.7651 -35.4839 6.8935 7.1250 -0.0000 -0.0000 27.1528 -64.0408 -12.9928
9.6957 11.7136 4.3186 -0.2196 -1.3658 18.4891 0.0000 0.0000 0.0000 2.6996 -14.8709 -68.5528 0.0000 0.0000 0.0000 0.0000 0.0000 0.0000 0.0000 0.0000 0.0000 0.0000 0.0000 0.0000 1.0606 11.8470 -65.8057 0.0000 0.0000 0.0000 -0.0000 -0.0000 0.0000 -0.0000 -0.0000 0.0000 -2.4229 0.4871 -0.1703 -1.4598 0.7061 1.9288 -0.1257 0.3241 2.0628 7.5333 -0.6377 -10.5599 0.5351 -1.4222 -14.2795 -1.1160 -1.1021 -2.8866 -0.0000 -0.0000 0.0000 0.0000 0.0000 -0.0000 0.0000 0.0000 -0.0000 -0.0000 -0.0000 0.0000 -0.0000 0.0000 0.0000 -0.0000 0.0000 0.0000 0.0000 0.0000 0.0000 -0.0000 -0.0000 0.0000 -25.0881 73.0705 -55.4017 -9.9541 16.6678 -1.4618 0.0000 0.0000 29.5179 -11.6692 -35.3705 6.8175 7.1250 -0.0000 -0.0000 27.1292 -63.9164 -12.9022
9.6974 11.7140 4.3146 -0.2690 -1.3798 18.5181 0.0000 0.0000 0.0000 2.7547 -14.8240 -68.6570 0.0000 0.0000 0.0000 0.0000 0.0000 0.0000 0.0000 0.0000 0.0000 0.0000 0.0000 0.0000 1.0915 11.9032 -65.8453 0.0000 0.0000 0.0000 -0.0000 -0.0000 0.0000 -0.0000 -0.0000 0.0000 -2.3629 0.5025 -0.2026 -1.4476 0.7273 1.9489 -0.1460 0.3352 2.1018 8.3153 -0.7401 -11.4947 -0.3262 -1.8104 -13.3686 -1.5455 -1.2915 -2.4580 -0.0000 -0.0000 0.0000 0.0000 0.0000 -0.0000 0.0000 0.0000 -0.0000 -0.0000 -0.0000 0.0000 -0.0000 0.0000 0.0000 -0.0000 0.0000 0.0000 0.0000 0.0000 0.0000 -0.0000 -0.0000 0.0000 -25.1968 73.0481 -55.5350 -9.9451 16.6537 -1.4592 0.0000 0.0000 29.4829 -11.7206 -35.2564 6.8290 7.1250 -0.0000 -0.0000 26.9483 -63.8308 -12.7562
9.6983 11.7149 4.3102 -0.2174 -1.4100 18.5254 0.0000 0.0000 0.0000 2.6812 -14.8082 -68.6916 0.0000 0.0000 0.0000 0.0000 0.0000 0.0000 0.0000 0.0000 0.0000 0.0000 0.0000 0.0000 1.0202 11.9115 -65.8933 0.0000 0.0000 0.0000 -0.0000 -0.0000 0.0000 -0.0000 -0.0000 0.0000 -2.4276 0.5073 -0.2233 -1.4598 0.7360 1.9657 -0.1220 0.3382 2.1300 7.8982 -0.6759 -11.2115 0.1612 -1.6126 -13.6444 -1.3067 -1.1884 -2.5763 -0.0000 0.0000 0.0000 0.0000 0.0000 -0.0000 0.0000 0.0000 -0.0000 -0.0000 -0.0000 0.0000 -0.0000 0.0000 0.0000 -0.0000 0.0000 0.0000 0.0000 0.0000 0.0000 -0.0000 0.0000 0.0000 -25.2148 73.0280 -55.5068 -9.9560 16.6707 -1.4623 0.0000 0.0000 29.4432 -11.7059 -35.2717 6.8228 7.1250 -0.0000 -0.0000 26.9808 -63.8402 -12.7787
9.7012 11.7156 4.3060 -0.1362 -1.3718 18.5316 0.0000 0.0000 0.0000 2.6124 -14.9213 -68.7299 0.0000 0.0000 0.0000 0.0000 0.0000 0.0000 0.0000 0.0000 0.0000 0.0000 0.0000 0.0000 0.9011 11.8280 -65.9043 0.0000 0.0000 0.0000 -0.0000 -0.0000 0.0000 -0.0000 -0.0000 0.0000 -2.4767 0.4937 -0.2017 -1.4771 0.7177 1.9535 -0.1128 0.3286 2.1053 7.9732 -0.6529 -11.7347 0.0256 -1.6627 -12.9693 -1.3672 -1.1943 -2.2641 -0.0000 0.0000 0.0000 0.0000 0.0000 -0.0000 0.0000 0.0000 -0.0000 -0.0000 -0.0000 0.0000 -0.0000 0.0000 0.0000 -0.0000 0.0000 0.0000 0.0000 0.0000 0.0000 -0.0000 0.0000 0.0000 -25.1128 72.9794 -55.1223 -9.9802 16.7085 -1.4692 0.0000 0.0000 29.1805 -11.4228 -35.4093 6.6772 7.1250 -0.0000 -0.0000 27.4358 -63.8841 -13.0383
9.7044 11.7163 4.3028 -0.0838 -1.3334 18.5273 0.0000 0.0000 0.0000 2.5754 -15.0331 -68.7573 0.0000 0.0000 0.0000 0.0000 0.0000 0.0000 0.0000 0.0000 0.0000 0.0000 0.0000 0.0000 0.8142 11.7520 -65.8926 0.0000 0.0000 0.0000 -0.0000 -0.0000 0.0000 -0.0000 -0.0000 0.0000 -2.5038 0.4834 -0.1762 -1.4731 0.7035 1.9590 -0.0941 0.3211 2.0965 7.9458 -0.6999 -11.6997 0.1324 -1.7058 -13.2403 -1.3275 -1.2243 -2.3622 -0.0000 -0.0000 0.0000 0.0000 0.0000 -0.0000 0.0000 0.0000 -0.0000 -0.0000 -0.0000 0.0000 -0.0000 0.0000 0.0000 -0.0000 0.0000 0.0000 0.0000 0.0000 0.0000 -0.0000 -0.0000 0.0000 -25.0874 72.9102 -54.7401 -10.0057 16.7484 -1.4766 0.0000 0.0000 28.8414 -11.2652 -35.5079 6.5993 7.1250 -0.0000 -0.0000 27.7140 -63.9272 -13.2085
9.7061 11.7166 4.3024 -0.0376 -1.3643 18.4803 0.0000 0.0000 0.0000 2.4829 -15.0314 -68.6927 0.0000 0.0000 0.0000 0.0000 0.0000 0.0000 0.0000 0.0000 0.0000 0.0000 0.0000 0.0000 0.7830 11.7117 -65.8757 0.0000 0.0000 0.0000 -0.0000 -0.0000 0.0000 -0.0000 -0.0000 0.0000 -2.5724 0.4760 -0.1054 -1.4599 0.6911 1.9432 -0.0432 0.3143 2.0399 7.2119 -0.8251 -10.2351 0.7899 -1.6018 -14.1324 -0.9762 -1.1782 -2.8878 -0.0000 -0.0000 0.0000 0.0000 0.0000 -0.0000 0.0000 0.0000 -0.0000 -0.0000 -0.0000 0.0000 -0.0000 0.0000 0.0000 -0.0000 0.0000 0.0000 0.0000 0.0000 0.0000 -0.0000 -0.0000 0.0000 -24.8935 72.9320 -54.3025 -10.0420 16.8052 -1.4871 0.0000 0.0000 28.6236 -11.2870 -35.4699 6.6062 7.1250 -0.0000 -0.0000 27.6482 -63.9002 -13.1573
9.7080 11.7169 4.3010 -0.0309 -1.3612 18.4625 0.0000 0.0000 0.0000 2.4550 -15.0411 -68.6493 0.0000 0.0000 0.0000 0.0000 0.0000 0.0000 0.0000 0.0000 0.0000 0.0000 0.0000 0.0000 0.8074 11.6447 -65.8817 0.0000 0.0000 0.0000 -0.0000 -0.0000 0.0000 -0.0000 -0.0000 0.0000 -2.5640 0.4691 -0.0519 -1.4599 0.6794 1.9306 -0.0485 0.3090 1.9970 8.0024 -0.6896 -11.2066 0.0355 -1.6546 -13.4678 -1.3671 -1.2074 -2.5218 -0.0000 0.0000 0.0000 0.0000 0.0000 -0.0000 0.0000 0.0000 -0.0000 -0.0000 -0.0000 0.0000 -0.0000 0.0000 0.0000 -0.0000 0.0000 0.0000 0.0000 0.0000 0.0000 -0.0000 0.0000 0.0000 -24.7689 72.9467 -54.0378 -10.0655 16.8420 -1.4939 0.0000 0.0000 28.4632 -11.2713 -35.4704 6.5969 7.1250 -0.0000 -0.0000 27.6655 -63.8964 -13.1638
9.7093 11.7175 4.2979 -0.0587 -1.3524 18.4870 0.0000 0.0000 0.0000 2.4958 -15.0494 -68.6620 0.0000 0.0000 0.0000 0.0000 0.0000 0.0000 0.0000 0.0000 0.0000 0.0000 0.0000 0.0000 0.8299 11.6569 -65.8958 0.0000 0.0000 0.0000 -0.0000 -0.0000 0.0000 -0.0000 -0.0000 0.0000 -2.5081 0.4810 -0.1245 -1.4679 0.6997 2.0111 -0.0867 0.3186 2.1210 4.9058 -0.5548 -7.0363 3.3227 -0.4770 -17.2066 0.2829 -0.6743 -4.4927 0.0000 0.0000 0.0000 0.0000 0.0000 -0.0000 0.0000 0.0000 -0.0000 -0.0000 -0.0000 0.0000 -0.0000 0.0000 0.0000 -0.0000 0.0000 0.0000 0.0000 0.0000 0.0000 0.0000 0.0000 0.0000 -25.0557 72.8474 -54.3281 -10.0927 16.8844 -1.5017 0.0000 0.0000 28.4291 -11.0942 -35.4453 6.4876 7.1250 -0.0000 -0.0000 27.8261 -63.8274 -13.2015
9.7093 11.7184 4.2952 -0.0759 -1.3823 18.4815 0.0000 0.0000 0.0000 2.5048 -15.0175 -68.6763 0.0000 0.0000 0.0000 0.0000 0.0000 0.0000 0.0000 0.0000 0.0000 0.0000 0.0000 0.0000 0.8274 11.7628 -65.8633 0.0000 0.0000 0.0000 -0.0000 -0.0000 0.0000 -0.0000 -0.0000 0.0000 -2.5027 0.4962 -0.1552 -1.4640 0.7221 2.0527 -0.0849 0.3290 2.1808 7.9773 -0.6495 -11.6804 0.0905 -1.6432 -13.2211 -1.3460 -1.1933 -2.3572 -0.0000 0.0000 0.0000 0.0000 0.0000 -0.0000 0.0000 0.0000 -0.0000 -0.0000 -0.0000 0.0000 -0.0000 0.0000 0.0000 -0.0000 0.0000 0.0000 0.0000 0.0000 0.0000 -0.0000 0.0000 0.0000 -25.0736 72.7858 -54.2902 -10.1428 16.9626 -1.5163 0.0000 0.0000 28.3524 -10.8690 -35.3212 6.3346 7.1250 -0.0000 -0.0000 27.9274 -63.6601 -13.1445
9.7094 11.7197 4.2936 -0.0747 -1.4072 18.4685 0.0000 0.0000 0.0000 2.4980 -15.0117 -68.6838 0.0000 0.0000 0.0000 0.0000 0.0000 0.0000 0.0000 0.0000 0.0000 0.0000 0.0000 0.0000 0.8187 11.8034 -65.8468 0.0000 0.0000 0.0000 -0.0000 -0.0000 0.0000 -0.0000 -0.0000 0.0000 -2.5287 0.4977 -0.0921 -1.4526 0.7204 1.9993 -0.0595 0.3287 2.0899 4.2754 -0.4597 -6.0366 3.9430 -0.1449 -18.0543 0.6129 -0.5296 -4.9996 0.0000 -0.0000 0.0000 0.0000 0.0000 -0.0000 0.0000 0.0000 -0.0000 -0.0000 -0.0000 0.0000 -0.0000 0.0000 0.0000 -0.0000 0.0000 0.0000 0.0000 0.0000 0.0000 0.0000 -0.0000 0.0000 -24.7470 72.7979 -53.7112 -10.1848 17.0281 -1.5286 0.0000 0.0000 28.1453 -10.8746 -35.3516 6.3426 7.1250 -0.0000 -0.0000 27.9553 -63.6879 -13.1768
9.7099 11.7209 4.2919 -0.0641 -1.4244 18.4614 0.0000 0.0000 0.0000 2.4858 -15.0157 -68.6565 0.0000 0.0000 0.0000 0.0000 0.0000 0.0000 0.0000 0.0000 0.0000 0.0000 0.0000 0.0000 0.8124 11.7724 -65.8804 0.0000 0.0000 0.0000 -0.0000 -0.0000 0.0000 -0.0000 -0.0000 0.0000 -2.5550 0.5003 -0.0696 -1.4501 0.7234 2.0030 -0.0423 0.3298 2.0807 7.9839 -0.6554 -11.4997 0.0675 -1.6354 -13.2960 -1.3540 -1.1919 -2.4127 0.0000 -0.0000 0.0000 0.0000 0.0000 -0.0000 0.0000 0.0000 -0.0000 -0.0000 -0.0000 0.0000 -0.0000 0.0000 0.0000 -0.0000 0.0000 0.0000 0.0000 0.0000 0.0000 0.0000 -0.0000 0.0000 -24.7448 72.7678 -53.5180 -10.2043 17.0584 -1.5343 0.0000 0.0000 27.9761 -10.8947 -35.3984 6.3618 7.1250 -0.0000 -0.0000 27.9858 -63.7336 -13.2221
9.7110 11.7213 4.2905 -0.0689 -1.4459 18.4495 0.0000 0.0000 0.0000 2.4750 -14.9928 -68.6292 0.0000 0.0000 0.0000 0.0000 0.0000 0.0000 0.0000 0.0000 0.0000 0.0000 0.0000 0.0000 0.8099 11.7889 -65.8904 0.0000 0.0000 0.0000 -0.0000 -0.0000 0.0000 -0.0000 -0.0000 0.0000 -2.5505 0.5059 -0.1322 -1.4476 0.7351 2.0753 -0.0412 0.3342 2.1901 4.7704 -0.5382 -6.7990 3.4225 -0.4122 -17.4265 0.3426 -0.6463 -4.6184 -0.0000 -0.0000 0.0000 0.0000 0.0000 -0.0000 0.0000 0.0000 -0.0000 -0.0000 -0.0000 0.0000 -0.0000 0.0000 0.0000 -0.0000 0.0000 0.0000 0.0000 0.0000 0.0000 -0.0000 -0.0000 0.0000 -25.0917 72.7756 -54.0286 -10.1768 17.0157 -1.5263 0.0000 0.0000 28.1037 -10.7938 -35.2699 6.2821 7.1250 -0.0000 -0.0000 27.9505 -63.5959 -13.1144
